<svg width="376" height="376" viewBox="0 0 376 376" fill="none" xmlns="http://www.w3.org/2000/svg">
<path d="M370.375 233.478C345.263 334.193 243.244 395.487 142.505 370.372C41.8086 345.263 -19.4917 243.248 5.63096 142.541C30.7315 41.8148 132.751 -19.4832 233.459 5.6256C334.19 30.7344 395.487 132.76 370.372 233.48L370.374 233.478H370.375Z" fill="#0052FF"/>
<path d="M270.909 161.215C274.651 136.196 255.602 122.747 229.553 113.776L238.003 79.8858L217.371 74.7454L209.145 107.743C203.721 106.39 198.15 105.116 192.614 103.852L200.9 70.6368L180.281 65.4964L171.826 99.3754C167.337 98.3535 162.929 97.3436 158.651 96.2795L158.675 96.1729L130.223 89.0687L124.735 111.103C124.735 111.103 140.042 114.611 139.719 114.827C148.074 116.912 149.585 122.442 149.334 126.826L139.708 165.434C140.284 165.58 141.03 165.792 141.853 166.123C141.165 165.952 140.433 165.765 139.673 165.583L126.18 219.668C125.159 222.206 122.568 226.015 116.726 224.569C116.933 224.869 101.73 220.827 101.73 220.827L91.4868 244.442L118.336 251.134C123.331 252.387 128.226 253.697 133.046 254.929L124.509 289.208L145.117 294.349L153.572 260.434C159.202 261.962 164.666 263.372 170.014 264.7L161.588 298.455L182.221 303.596L190.758 269.381C225.94 276.039 252.394 273.355 263.529 241.536C272.502 215.918 263.083 201.142 244.573 191.506C258.055 188.397 268.209 179.532 270.917 161.217L270.91 161.213L270.909 161.215ZM223.769 227.309C217.393 252.927 174.256 239.079 160.27 235.606L171.6 190.193C185.585 193.684 230.433 200.592 223.77 227.309H223.769ZM230.15 160.843C224.334 184.145 188.43 172.307 176.783 169.404L187.055 128.217C198.702 131.12 236.209 136.538 230.152 160.843H230.15Z" fill="white"/>
</svg>
