<svg width="384" height="384" viewBox="0 0 384 384" fill="none" xmlns="http://www.w3.org/2000/svg">
<g filter="url(#filter0_d_2011_2)">
<path d="M374.375 233.478C349.263 334.193 247.244 395.487 146.505 370.372C45.8086 345.263 -15.4917 243.248 9.63096 142.541C34.7315 41.8148 136.751 -19.4832 237.459 5.6256C338.19 30.7344 399.487 132.76 374.372 233.48L374.374 233.478H374.375Z" fill="url(#paint0_angular_2011_2)"/>
<path d="M274.909 161.215C278.651 136.196 259.602 122.747 233.553 113.776L242.003 79.8858L221.371 74.7454L213.145 107.743C207.721 106.39 202.15 105.116 196.614 103.852L204.9 70.6368L184.281 65.4964L175.826 99.3754C171.337 98.3535 166.929 97.3436 162.651 96.2795L162.675 96.1729L134.223 89.0687L128.735 111.103C128.735 111.103 144.042 114.611 143.719 114.827C152.074 116.912 153.585 122.442 153.334 126.826L143.708 165.434C144.284 165.58 145.03 165.792 145.853 166.123C145.165 165.952 144.433 165.765 143.673 165.583L130.18 219.668C129.159 222.206 126.568 226.015 120.726 224.569C120.933 224.869 105.73 220.827 105.73 220.827L95.4868 244.442L122.336 251.134C127.331 252.387 132.226 253.697 137.046 254.929L128.509 289.208L149.117 294.349L157.572 260.434C163.202 261.962 168.666 263.372 174.014 264.7L165.588 298.455L186.221 303.596L194.758 269.381C229.94 276.039 256.394 273.355 267.529 241.536C276.502 215.918 267.083 201.142 248.573 191.506C262.055 188.397 272.209 179.532 274.917 161.217L274.91 161.213L274.909 161.215ZM227.769 227.309C221.393 252.927 178.256 239.079 164.27 235.606L175.6 190.193C189.585 193.684 234.433 200.592 227.77 227.309H227.769ZM234.15 160.843C228.334 184.145 192.43 172.307 180.783 169.404L191.055 128.217C202.702 131.12 240.209 136.538 234.152 160.843H234.15Z" fill="white"/>
</g>
<defs>
<filter id="filter0_d_2011_2" x="1.86488e-07" y="-3.21438e-07" width="384" height="384" filterUnits="userSpaceOnUse" color-interpolation-filters="sRGB">
<feFlood flood-opacity="0" result="BackgroundImageFix"/>
<feColorMatrix in="SourceAlpha" type="matrix" values="0 0 0 0 0 0 0 0 0 0 0 0 0 0 0 0 0 0 127 0" result="hardAlpha"/>
<feOffset dy="4"/>
<feGaussianBlur stdDeviation="2"/>
<feComposite in2="hardAlpha" operator="out"/>
<feColorMatrix type="matrix" values="0 0 0 0 0 0 0 0 0 0 0 0 0 0 0 0 0 0 0.25 0"/>
<feBlend mode="normal" in2="BackgroundImageFix" result="effect1_dropShadow_2011_2"/>
<feBlend mode="normal" in="SourceGraphic" in2="effect1_dropShadow_2011_2" result="shape"/>
</filter>
<radialGradient id="paint0_angular_2011_2" cx="0" cy="0" r="1" gradientUnits="userSpaceOnUse" gradientTransform="translate(192 188) rotate(90) scale(188)">
<stop offset="0.25" stop-color="#0052FF"/>
<stop offset="0.25" stop-color="white"/>
</radialGradient>
</defs>
</svg>
