<svg width="1874" height="252" viewBox="0 0 1874 252" fill="none" xmlns="http://www.w3.org/2000/svg">
<rect width="1874" height="252" fill="white"/>
<path d="M20.8798 203V85.3957H0.726898V55.0284H20.8798V43.1575C20.8798 14.1705 34.6831 0.781302 69.6055 0.781302C77.0593 0.781302 85.2032 1.47147 89.8964 2.4377V29.0781C87.1357 28.526 83.2708 28.388 79.5439 28.388C66.1547 28.388 60.2192 34.0473 60.2192 44.6759V55.0284H89.6203V85.3957H61.1855V203H20.8798ZM125.012 203V55.0284H165.318V80.8406H166.146C170.563 62.6202 182.572 51.9916 199.826 51.9916C204.243 51.9916 208.384 52.6818 211.421 53.51V88.9845C208.108 87.6042 202.587 86.776 196.789 86.776C176.913 86.776 165.318 98.6469 165.318 120.18V203H125.012ZM305.063 206.037C260.064 206.037 231.767 177.188 231.767 129.014V128.738C231.767 81.1166 260.754 51.9916 304.925 51.9916C349.233 51.9916 378.358 80.8406 378.358 128.738V129.014C378.358 177.326 349.785 206.037 305.063 206.037ZM305.201 174.427C324.801 174.427 337.362 157.863 337.362 129.014V128.738C337.362 100.165 324.525 83.6012 304.925 83.6012C285.462 83.6012 272.763 100.165 272.763 128.738V129.014C272.763 158.001 285.324 174.427 305.201 174.427ZM413.336 203V55.0284H453.642V79.8743H454.47C460.543 63.0343 476.003 51.9916 495.88 51.9916C516.585 51.9916 531.63 63.0343 536.6 82.497H537.428C544.053 63.8625 561.722 51.9916 583.393 51.9916C612.38 51.9916 631.842 72.0065 631.842 101.822V203H591.537V111.898C591.537 94.7819 582.979 85.3957 567.381 85.3957C552.059 85.3957 541.983 96.5764 541.983 113.002V203H503.196V110.656C503.196 94.7819 494.223 85.3957 479.316 85.3957C463.994 85.3957 453.642 96.9905 453.642 113.692V203H413.336Z" fill="black"/>
<path d="M1360.09 205.347C1347.53 205.347 1337.73 195.408 1337.73 182.985C1337.73 170.424 1347.53 160.624 1360.09 160.624C1372.52 160.624 1382.46 170.424 1382.46 182.985C1382.46 195.408 1372.52 205.347 1360.09 205.347ZM1411.36 203L1457.74 129.29L1411.64 55.0284H1457.05L1483.69 104.996H1484.52L1510.74 55.0284H1554.64L1508.4 128.186L1554.22 203H1510.47L1482.31 151.652H1481.48L1453.74 203H1411.36ZM1610.32 251.726C1602.45 251.726 1594.45 250.76 1589.75 249.931V219.978C1592.65 220.53 1597.35 221.358 1603.28 221.358C1615.29 221.358 1621.92 217.908 1625.5 207.831L1627.3 203L1574.98 55.0284H1619.29L1650.49 170.7H1651.59L1682.93 55.0284H1725.44L1674.64 205.623C1663.05 240.545 1643.17 251.726 1610.32 251.726ZM1750.89 203V180.086L1825.29 86.0858V85.3957H1752V55.0284H1871.4V80.5645L1801.41 171.804V172.633H1873.05V203H1750.89Z" fill="black"/>
<path d="M661.564 203V3.81803H748.249C785.794 3.81803 809.398 23.1427 809.398 53.7861V54.0621C809.398 75.8714 792.834 94.5059 770.886 97.4046V98.2328C798.631 100.303 818.646 119.904 818.646 145.992V146.268C818.646 181.191 792.281 203 749.767 203H661.564ZM737.482 34.7375H703.25V87.0521H732.375C755.841 87.0521 768.402 77.2517 768.402 59.9976V59.7215C768.402 43.8477 756.945 34.7375 737.482 34.7375ZM737.344 115.349H703.25V171.943H739.139C763.018 171.943 776.132 162.142 776.132 143.646V143.37C776.132 125.149 762.88 115.349 737.344 115.349ZM897.104 205.347C867.427 205.347 847.412 186.712 847.412 160.624V160.348C847.412 133.431 868.255 117.695 904.972 115.349L941.551 113.14V104.03C941.551 90.917 932.993 82.773 917.257 82.773C902.211 82.773 893.101 89.8127 891.168 99.337L890.892 100.579H854.038L854.176 98.9229C856.384 71.5924 879.85 51.9916 918.913 51.9916C957.148 51.9916 981.856 71.7304 981.856 101.546V203H941.551V180.915H940.722C932.302 196.098 916.567 205.347 897.104 205.347ZM887.304 158.553C887.304 169.458 896.276 175.945 910.217 175.945C928.299 175.945 941.551 164.351 941.551 148.891V138.262L911.045 140.195C895.448 141.161 887.304 147.787 887.304 158.277V158.553ZM1082.95 206.037C1041.96 206.037 1019.18 187.126 1016.01 159.105L1015.87 157.863H1055.21L1055.48 159.105C1058.11 170.7 1066.8 177.464 1082.95 177.464C1098.14 177.464 1107.38 171.528 1107.38 162.004V161.866C1107.38 153.998 1102.41 149.443 1087.92 146.268L1062.8 141.023C1034.09 134.95 1019.59 120.594 1019.59 98.5088V98.3708C1019.59 70.212 1043.89 51.9916 1081.57 51.9916C1120.91 51.9916 1142.86 72.8347 1143.82 98.7849V100.165H1106.69L1106.56 99.061C1105.18 88.4324 1096.48 80.4265 1081.57 80.4265C1067.63 80.4265 1058.93 86.638 1058.93 96.1623V96.3003C1058.93 103.892 1064.04 108.861 1078.95 112.036L1104.07 117.419C1134.99 123.907 1147.69 136.054 1147.69 157.863V158.001C1147.69 186.988 1121.05 206.037 1082.95 206.037ZM1249.06 206.037C1203.79 206.037 1176.32 176.636 1176.32 129.29V129.152C1176.32 82.0829 1204.06 51.9916 1247.4 51.9916C1290.75 51.9916 1317.94 81.3927 1317.94 126.115V138.538H1216.07C1216.49 162.142 1229.32 175.945 1249.89 175.945C1266.45 175.945 1276.53 166.835 1279.43 158.553L1279.7 157.725H1316.7L1316.28 159.243C1311.73 181.053 1291.3 206.037 1249.06 206.037ZM1248.09 82.0829C1231.53 82.0829 1219.11 93.1255 1216.49 113.14H1279.29C1276.81 92.7114 1264.8 82.0829 1248.09 82.0829Z" fill="#0052FF"/>
</svg>
